HIERARCHY
ROOT ROOT
{
	OFFSET 0.000000 56.020000 -5.659234
	CHANNELS 6 Xposition Yposition Zposition Xrotation Yrotation Zrotation 
	JOINT C_spine0001_bind_JNT
	{
		OFFSET 0.000000 1.618999 0.000000
		CHANNELS 3 Xrotation Yrotation Zrotation
		JOINT C_spine0002_bind_JNT
		{
			OFFSET 0.000000 4.942001 0.000001
			CHANNELS 3 Xrotation Yrotation Zrotation
			JOINT C_spine0003_bind_JNT
			{
				OFFSET 0.000000 4.942001 -0.000000
				CHANNELS 3 Xrotation Yrotation Zrotation
				JOINT C_neck0001_bind_JNT
				{
					OFFSET 0.000000 17.026009 -0.000000
					CHANNELS 3 Xrotation Yrotation Zrotation
					JOINT C_neck0002_bind_JNT
					{
						OFFSET 0.000000 3.249985 0.000000
						CHANNELS 3 Xrotation Yrotation Zrotation
						JOINT C_head_bind_JNT
						{
							OFFSET 0.000000 5.278008 0.000000
							CHANNELS 3 Xrotation Yrotation Zrotation
							End Site
							{
								OFFSET 0.000000 0.000000 0.000000
							}
						}
					}
				}
				JOINT L_clavicle_bind_JNT
				{
					OFFSET 4.590000 12.067001 0.834000
					CHANNELS 3 Xrotation Yrotation Zrotation
					JOINT L_armUpper0001_bind_JNT
					{
						OFFSET 7.812635 0.512001 -3.452945
						CHANNELS 3 Xrotation Yrotation Zrotation
						JOINT L_armLower0001_bind_JNT
						{
							OFFSET 15.265892 -6.552116 -0.058157
							CHANNELS 3 Xrotation Yrotation Zrotation
							JOINT L_hand0001_bind_JNT
							{
								OFFSET 14.747667 -6.369995 5.049225
								CHANNELS 3 Xrotation Yrotation Zrotation
								End Site
								{
									OFFSET 0.000000 0.000000 0.000000
								}
							}
						}
					}
				}
				JOINT R_clavicle_bind_JNT
				{
					OFFSET -4.590000 12.067001 0.834000
					CHANNELS 3 Xrotation Yrotation Zrotation
					JOINT R_armUpper0001_bind_JNT
					{
						OFFSET -7.812635 0.512001 -3.452945
						CHANNELS 3 Xrotation Yrotation Zrotation
						JOINT R_armLower0001_bind_JNT
						{
							OFFSET -15.265890 -6.552124 -0.058160
							CHANNELS 3 Xrotation Yrotation Zrotation
							JOINT R_hand0001_bind_JNT
							{
								OFFSET -14.746784 -6.369629 5.048937
								CHANNELS 3 Xrotation Yrotation Zrotation
								End Site
								{
									OFFSET 0.000000 0.000000 0.000000
								}
							}
						}
					}
				}
			}
		}
	}
	JOINT C_pelvis0001_bind_JNT
	{
		OFFSET -0.000000 0.000000 0.000000
		CHANNELS 3 Xrotation Yrotation Zrotation
		JOINT L_legUpper0001_bind_JNT
		{
			OFFSET 6.599999 -6.027000 0.539000
			CHANNELS 3 Xrotation Yrotation Zrotation
			JOINT L_legLower0001_bind_JNT
			{
				OFFSET -0.140713 -19.187443 0.040261
				CHANNELS 3 Xrotation Yrotation Zrotation
				JOINT L_foot0001_bind_JNT
				{
					OFFSET -0.132215 -18.028637 -1.138370
					CHANNELS 3 Xrotation Yrotation Zrotation
					JOINT L_foot0002_bind_JNT
					{
						OFFSET 0.007014 -4.693133 9.886524
						CHANNELS 3 Xrotation Yrotation Zrotation
						End Site
						{
							OFFSET 0.000000 0.000000 0.000000
						}
					}
				}
			}
		}
		JOINT R_legUpper0001_bind_JNT
		{
			OFFSET -6.599999 -6.027000 0.539000
			CHANNELS 3 Xrotation Yrotation Zrotation
			JOINT R_legLower0001_bind_JNT
			{
				OFFSET 0.140710 -19.187164 0.040550
				CHANNELS 3 Xrotation Yrotation Zrotation
				JOINT R_foot0001_bind_JNT
				{
					OFFSET 0.132215 -18.028633 -1.138362
					CHANNELS 3 Xrotation Yrotation Zrotation
					JOINT R_foot0002_bind_JNT
					{
						OFFSET -0.007014 -4.693128 9.886505
						CHANNELS 3 Xrotation Yrotation Zrotation
						End Site
						{
							OFFSET 0.000000 0.000000 0.000000
						}
					}
				}
			}
		}
	}
}
MOTION
Frames: 5
Frame Time: 0.033333
0.000000 49.091534 0.000000 0.019871 -2.589605 -0.007911 -2.662065 2.588475 -0.080667 4.049922 0.196770 -1.368391 1.407926 0.220084 -1.008470 -1.236906 0.026213 -0.506469 1.177547 1.493147 -0.315321 7.066864 0.927156 1.327138 3.878482 16.014565 -3.753742 -8.781869 -3.506210 -59.881664 11.281801 6.425561 5.408081 -13.303931 -32.162613 -31.909935 2.018785 -13.227118 3.453709 -6.248514 2.527218 61.534073 13.029705 -0.409112 -3.690066 -12.015668 32.705257 34.979317 -1.629007 2.024927 -0.505088 6.516454 -0.053470 -1.247361 -1.059908 1.474767 0.155931 -3.335289 4.578928 0.512205 -0.946928 0.040223 0.397881 2.833245 -0.441300 0.120307 4.611926 1.327179 -0.209493 -0.869905 -6.882193 0.750871 -0.036456 0.275140 -0.266081
-0.045405 49.098579 0.108802 0.000291 -2.276553 -0.014526 -2.705870 2.116645 -0.140701 3.932815 0.268265 -1.414999 1.634625 0.251771 -0.955103 -2.076177 0.103830 -0.678261 1.445478 1.258305 0.117113 7.793083 0.491623 1.429441 4.615615 16.744871 -4.115986 -8.873833 -4.327588 -59.348827 12.607899 5.379066 5.423672 -15.456530 -32.501919 -32.616749 1.770832 -13.179878 3.667989 -5.651417 1.888866 61.502785 13.298336 1.059605 -4.926227 -15.103210 32.320862 36.422894 -1.811000 1.775010 -0.436047 6.493784 0.763812 -1.404850 -0.387113 1.402344 0.255424 -3.567737 3.858039 0.495264 -0.695103 -0.012829 0.233089 3.432909 -0.344552 0.425053 3.998240 1.769123 -0.162486 -0.273799 -7.816734 -0.004102 -0.005073 -0.131157 0.107312
-0.115980 49.113209 0.234116 0.004023 -2.158682 -0.005829 -2.388805 2.007186 -0.118715 3.787481 0.290635 -1.380090 1.568627 0.288844 -1.084895 -2.084621 0.104464 -0.816596 1.452435 1.064901 0.263208 7.779947 0.553348 1.478217 4.346893 16.844578 -4.345773 -8.842761 -4.176567 -59.009743 12.684460 5.175242 5.629746 -15.357145 -32.942490 -32.652496 1.658218 -13.164778 3.833708 -5.683800 1.912544 61.339561 13.335557 1.109616 -4.789726 -14.680426 32.403114 36.066025 -1.464603 1.713619 -0.456593 6.638162 0.730523 -1.270068 -0.952710 1.678103 0.227956 -3.517596 3.665707 0.589939 -0.692490 -0.113539 -0.021436 3.471918 -0.498947 0.597856 3.629550 2.033373 -0.405223 -0.188771 -7.910089 0.124391 0.169078 -0.075239 -0.016590
-0.170765 49.140335 0.323996 0.002930 -2.084607 -0.015290 -2.379960 2.001544 -0.037675 3.701698 0.285115 -1.461447 1.593750 0.287728 -0.960597 -2.265296 0.112038 -0.845594 1.596114 1.138465 0.205428 7.799175 0.291996 1.339620 4.298018 16.815630 -4.465715 -8.729129 -4.241704 -58.877922 12.818301 4.969413 5.674693 -15.167460 -33.103222 -32.826790 1.557556 -13.093970 3.912103 -5.752714 1.784946 61.270931 13.436167 0.748094 -4.746819 -14.562415 32.353424 35.883739 -1.427410 1.769777 -0.457377 6.777233 0.757288 -1.245495 -1.024043 1.689717 0.234349 -3.627426 3.514292 0.533436 -0.679301 -0.077763 -0.034117 3.554001 -0.450448 0.701462 3.341485 1.991715 -0.403300 0.161342 -7.961713 -0.007473 0.132720 -0.039817 0.068214
-0.241994 49.158821 0.412972 -0.000363 -2.006562 -0.010031 -2.412817 1.994653 0.085011 3.677011 0.313082 -1.370634 1.514766 0.322726 -1.068833 -2.233736 0.040674 -0.904024 1.574337 1.124049 0.292225 7.861753 0.313355 1.237318 4.237638 16.739443 -4.489906 -8.617946 -4.185434 -58.958252 13.021934 4.961227 5.597761 -14.677338 -33.288719 -32.700081 1.600029 -13.160469 3.919276 -5.760653 1.667555 61.404121 13.222426 0.416397 -4.716462 -14.614979 32.249020 35.892155 -1.395545 1.721766 -0.372810 7.124927 0.793790 -1.244730 -1.325960 1.824925 0.237410 -3.514718 3.361403 0.306200 -0.882846 0.028248 0.010184 3.740867 -0.376178 0.821861 3.050604 2.078634 -0.459311 0.289649 -8.132721 -0.152955 0.326171 -0.015354 0.125700
